<svg width="89" height="72" viewBox="0 0 89 72" fill="none" xmlns="http://www.w3.org/2000/svg">
<rect width="89" height="72" rx="1" fill="#2C3E50"/>
<path d="M20.1989 14.3636H22.6591V21.9205C22.6591 22.7689 22.4564 23.5114 22.0511 24.1477C21.6496 24.7841 21.0871 25.2803 20.3636 25.6364C19.6402 25.9886 18.7973 26.1648 17.8352 26.1648C16.8693 26.1648 16.0246 25.9886 15.3011 25.6364C14.5777 25.2803 14.0152 24.7841 13.6136 24.1477C13.2121 23.5114 13.0114 22.7689 13.0114 21.9205V14.3636H15.4716V21.7102C15.4716 22.1534 15.5682 22.5473 15.7614 22.892C15.9583 23.2367 16.2348 23.5076 16.5909 23.7045C16.947 23.9015 17.3617 24 17.8352 24C18.3125 24 18.7273 23.9015 19.0795 23.7045C19.4356 23.5076 19.7102 23.2367 19.9034 22.892C20.1004 22.5473 20.1989 22.1534 20.1989 21.7102V14.3636ZM25.5057 26.1477C25.1307 26.1477 24.8087 26.0152 24.5398 25.75C24.2746 25.4811 24.142 25.1591 24.142 24.7841C24.142 24.4129 24.2746 24.0947 24.5398 23.8295C24.8087 23.5644 25.1307 23.4318 25.5057 23.4318C25.8693 23.4318 26.1875 23.5644 26.4602 23.8295C26.733 24.0947 26.8693 24.4129 26.8693 24.7841C26.8693 25.0341 26.8049 25.2633 26.6761 25.4716C26.5511 25.6761 26.3864 25.8409 26.1818 25.9659C25.9773 26.0871 25.7519 26.1477 25.5057 26.1477ZM35.2145 17.7102C35.169 17.2519 34.974 16.8958 34.6293 16.642C34.2846 16.3883 33.8168 16.2614 33.2259 16.2614C32.8243 16.2614 32.4853 16.3182 32.2088 16.4318C31.9323 16.5417 31.7202 16.6951 31.5724 16.892C31.4285 17.089 31.3565 17.3125 31.3565 17.5625C31.349 17.7708 31.3925 17.9527 31.4872 18.108C31.5857 18.2633 31.7202 18.3977 31.8906 18.5114C32.0611 18.6212 32.258 18.7178 32.4815 18.8011C32.705 18.8807 32.9437 18.9489 33.1974 19.0057L34.2429 19.2557C34.7505 19.3693 35.2164 19.5208 35.6406 19.7102C36.0649 19.8996 36.4323 20.1326 36.7429 20.4091C37.0535 20.6856 37.294 21.0114 37.4645 21.3864C37.6387 21.7614 37.7277 22.1913 37.7315 22.6761C37.7277 23.3883 37.5459 24.0057 37.1861 24.5284C36.83 25.0473 36.3149 25.4508 35.6406 25.7386C34.9702 26.0227 34.1615 26.1648 33.2145 26.1648C32.2751 26.1648 31.4569 26.0208 30.7599 25.733C30.0668 25.4451 29.5251 25.0189 29.1349 24.4545C28.7486 23.8864 28.5459 23.1837 28.527 22.3466H30.9077C30.9342 22.7367 31.0459 23.0625 31.2429 23.3239C31.4437 23.5814 31.7107 23.7765 32.044 23.9091C32.3812 24.0379 32.7618 24.1023 33.1861 24.1023C33.6027 24.1023 33.9645 24.0417 34.2713 23.9205C34.5819 23.7992 34.8224 23.6307 34.9929 23.4148C35.1634 23.1989 35.2486 22.9508 35.2486 22.6705C35.2486 22.4091 35.1709 22.1894 35.0156 22.0114C34.8641 21.8333 34.6406 21.6818 34.3452 21.5568C34.0535 21.4318 33.6955 21.3182 33.2713 21.2159L32.0043 20.8977C31.0232 20.6591 30.2486 20.286 29.6804 19.7784C29.1122 19.2708 28.83 18.5871 28.8338 17.7273C28.83 17.0227 29.0175 16.4072 29.3963 15.8807C29.7789 15.3542 30.3035 14.9432 30.9702 14.6477C31.6368 14.3523 32.3944 14.2045 33.2429 14.2045C34.1065 14.2045 34.8603 14.3523 35.5043 14.6477C36.152 14.9432 36.6558 15.3542 37.0156 15.8807C37.3755 16.4072 37.5611 17.017 37.5724 17.7102H35.2145ZM40.7557 26.1477C40.3807 26.1477 40.0587 26.0152 39.7898 25.75C39.5246 25.4811 39.392 25.1591 39.392 24.7841C39.392 24.4129 39.5246 24.0947 39.7898 23.8295C40.0587 23.5644 40.3807 23.4318 40.7557 23.4318C41.1193 23.4318 41.4375 23.5644 41.7102 23.8295C41.983 24.0947 42.1193 24.4129 42.1193 24.7841C42.1193 25.0341 42.0549 25.2633 41.9261 25.4716C41.8011 25.6761 41.6364 25.8409 41.4318 25.9659C41.2273 26.0871 41.0019 26.1477 40.7557 26.1477ZM20.7273 34.125C20.6477 33.8485 20.536 33.6042 20.392 33.392C20.2481 33.1761 20.072 32.9943 19.8636 32.8466C19.6591 32.6951 19.4242 32.5795 19.1591 32.5C18.8977 32.4205 18.608 32.3807 18.2898 32.3807C17.6951 32.3807 17.1723 32.5284 16.7216 32.8239C16.2746 33.1193 15.9261 33.5492 15.6761 34.1136C15.4261 34.6742 15.3011 35.3598 15.3011 36.1705C15.3011 36.9811 15.4242 37.6705 15.6705 38.2386C15.9167 38.8068 16.2652 39.2405 16.7159 39.5398C17.1667 39.8352 17.6989 39.983 18.3125 39.983C18.8693 39.983 19.3447 39.8845 19.7386 39.6875C20.1364 39.4867 20.4394 39.2045 20.6477 38.8409C20.8598 38.4773 20.9659 38.0473 20.9659 37.5511L21.4659 37.625H18.4659V35.7727H23.3352V37.2386C23.3352 38.2614 23.1193 39.1402 22.6875 39.875C22.2557 40.6061 21.661 41.1705 20.9034 41.5682C20.1458 41.9621 19.2784 42.1591 18.3011 42.1591C17.2102 42.1591 16.2519 41.9186 15.4261 41.4375C14.6004 40.9527 13.9564 40.2652 13.4943 39.375C13.036 38.4811 12.8068 37.4205 12.8068 36.1932C12.8068 35.25 12.9432 34.4091 13.2159 33.6705C13.4924 32.928 13.8788 32.2992 14.375 31.7841C14.8712 31.2689 15.4489 30.8769 16.108 30.608C16.767 30.339 17.4811 30.2045 18.25 30.2045C18.9091 30.2045 19.5227 30.3011 20.0909 30.4943C20.6591 30.6837 21.1629 30.9527 21.6023 31.3011C22.0455 31.6496 22.4072 32.0644 22.6875 32.5455C22.9678 33.0227 23.1477 33.5492 23.2273 34.125H20.7273ZM25.1832 42V30.3636H27.6435V35.1648H32.6378V30.3636H35.0923V42H32.6378V37.1932H27.6435V42H25.1832ZM44.8366 34.125C44.7571 33.8485 44.6454 33.6042 44.5014 33.392C44.3575 33.1761 44.1813 32.9943 43.973 32.8466C43.7685 32.6951 43.5336 32.5795 43.2685 32.5C43.0071 32.4205 42.7173 32.3807 42.3991 32.3807C41.8045 32.3807 41.2817 32.5284 40.831 32.8239C40.384 33.1193 40.0355 33.5492 39.7855 34.1136C39.5355 34.6742 39.4105 35.3598 39.4105 36.1705C39.4105 36.9811 39.5336 37.6705 39.7798 38.2386C40.026 38.8068 40.3745 39.2405 40.8253 39.5398C41.276 39.8352 41.8082 39.983 42.4219 39.983C42.9787 39.983 43.4541 39.8845 43.848 39.6875C44.2457 39.4867 44.5488 39.2045 44.7571 38.8409C44.9692 38.4773 45.0753 38.0473 45.0753 37.5511L45.5753 37.625H42.5753V35.7727H47.4446V37.2386C47.4446 38.2614 47.2287 39.1402 46.7969 39.875C46.3651 40.6061 45.7704 41.1705 45.0128 41.5682C44.2552 41.9621 43.3878 42.1591 42.4105 42.1591C41.3196 42.1591 40.3613 41.9186 39.5355 41.4375C38.7098 40.9527 38.0658 40.2652 37.6037 39.375C37.1454 38.4811 36.9162 37.4205 36.9162 36.1932C36.9162 35.25 37.0526 34.4091 37.3253 33.6705C37.6018 32.928 37.9882 32.2992 38.4844 31.7841C38.9806 31.2689 39.5582 30.8769 40.2173 30.608C40.8764 30.339 41.5904 30.2045 42.3594 30.2045C43.0185 30.2045 43.6321 30.3011 44.2003 30.4943C44.7685 30.6837 45.2723 30.9527 45.7116 31.3011C46.1548 31.6496 46.5166 32.0644 46.7969 32.5455C47.0772 33.0227 47.2571 33.5492 47.3366 34.125H44.8366ZM23.2784 50.4375H20.7898C20.7443 50.1155 20.6515 49.8295 20.5114 49.5795C20.3712 49.3258 20.1913 49.1098 19.9716 48.9318C19.7519 48.7538 19.4981 48.6174 19.2102 48.5227C18.9261 48.428 18.6174 48.3807 18.2841 48.3807C17.6818 48.3807 17.1572 48.5303 16.7102 48.8295C16.2633 49.125 15.9167 49.5568 15.6705 50.125C15.4242 50.6894 15.3011 51.375 15.3011 52.1818C15.3011 53.0114 15.4242 53.7083 15.6705 54.2727C15.9205 54.8371 16.2689 55.2633 16.7159 55.5511C17.1629 55.839 17.6799 55.983 18.267 55.983C18.5966 55.983 18.9015 55.9394 19.1818 55.8523C19.4659 55.7652 19.7178 55.6383 19.9375 55.4716C20.1572 55.3011 20.339 55.0947 20.483 54.8523C20.6307 54.6098 20.733 54.3333 20.7898 54.0227L23.2784 54.0341C23.214 54.5682 23.053 55.0833 22.7955 55.5795C22.5417 56.072 22.1989 56.5133 21.767 56.9034C21.339 57.2898 20.8277 57.5966 20.233 57.8239C19.642 58.0473 18.9735 58.1591 18.2273 58.1591C17.1894 58.1591 16.2614 57.9242 15.4432 57.4545C14.6288 56.9848 13.9848 56.3049 13.5114 55.4148C13.0417 54.5246 12.8068 53.447 12.8068 52.1818C12.8068 50.9129 13.0455 49.8333 13.5227 48.9432C14 48.053 14.6477 47.375 15.4659 46.9091C16.2841 46.4394 17.2045 46.2045 18.2273 46.2045C18.9015 46.2045 19.5265 46.2992 20.1023 46.4886C20.6818 46.678 21.1951 46.9545 21.642 47.3182C22.089 47.678 22.4527 48.1193 22.733 48.642C23.017 49.1648 23.1989 49.7633 23.2784 50.4375ZM25.0426 58V46.3636H32.8835V48.392H27.5028V51.1648H32.4801V53.1932H27.5028V55.9716H32.9062V58H25.0426ZM44.5724 46.3636V58H42.4474L37.3849 50.6761H37.2997V58H34.8395V46.3636H36.9986L42.0213 53.6818H42.1236V46.3636H44.5724ZM46.1619 48.392V46.3636H55.7188V48.392H52.1562V58H49.7244V48.392H46.1619ZM57.2926 58V46.3636H65.1335V48.392H59.7528V51.1648H64.7301V53.1932H59.7528V55.9716H65.1562V58H57.2926ZM67.0895 58V46.3636H71.6804C72.5592 46.3636 73.3092 46.5208 73.9304 46.8352C74.5554 47.1458 75.0308 47.5871 75.3565 48.1591C75.6861 48.7273 75.8509 49.3958 75.8509 50.1648C75.8509 50.9375 75.6842 51.6023 75.3509 52.1591C75.0175 52.7121 74.5346 53.1364 73.902 53.4318C73.2732 53.7273 72.5118 53.875 71.6179 53.875H68.544V51.8977H71.2202C71.6899 51.8977 72.08 51.8333 72.3906 51.7045C72.7012 51.5758 72.9323 51.3826 73.0838 51.125C73.2391 50.8674 73.3168 50.5473 73.3168 50.1648C73.3168 49.7784 73.2391 49.4527 73.0838 49.1875C72.9323 48.9223 72.6993 48.7216 72.3849 48.5852C72.0743 48.4451 71.6823 48.375 71.2088 48.375H69.5497V58H67.0895ZM73.3736 52.7045L76.2656 58H73.5497L70.7202 52.7045H73.3736Z" fill="white"/>
</svg>
