<svg width="105" height="84" viewBox="0 0 105 84" fill="none" xmlns="http://www.w3.org/2000/svg">
<rect y="12" width="89" height="72" rx="1" fill="white"/>
<path d="M20.1989 26.3636H22.6591V33.9205C22.6591 34.7689 22.4564 35.5114 22.0511 36.1477C21.6496 36.7841 21.0871 37.2803 20.3636 37.6364C19.6402 37.9886 18.7973 38.1648 17.8352 38.1648C16.8693 38.1648 16.0246 37.9886 15.3011 37.6364C14.5777 37.2803 14.0152 36.7841 13.6136 36.1477C13.2121 35.5114 13.0114 34.7689 13.0114 33.9205V26.3636H15.4716V33.7102C15.4716 34.1534 15.5682 34.5473 15.7614 34.892C15.9583 35.2367 16.2348 35.5076 16.5909 35.7045C16.947 35.9015 17.3617 36 17.8352 36C18.3125 36 18.7273 35.9015 19.0795 35.7045C19.4356 35.5076 19.7102 35.2367 19.9034 34.892C20.1004 34.5473 20.1989 34.1534 20.1989 33.7102V26.3636ZM25.5057 38.1477C25.1307 38.1477 24.8087 38.0152 24.5398 37.75C24.2746 37.4811 24.142 37.1591 24.142 36.7841C24.142 36.4129 24.2746 36.0947 24.5398 35.8295C24.8087 35.5644 25.1307 35.4318 25.5057 35.4318C25.8693 35.4318 26.1875 35.5644 26.4602 35.8295C26.733 36.0947 26.8693 36.4129 26.8693 36.7841C26.8693 37.0341 26.8049 37.2633 26.6761 37.4716C26.5511 37.6761 26.3864 37.8409 26.1818 37.9659C25.9773 38.0871 25.7519 38.1477 25.5057 38.1477ZM35.2145 29.7102C35.169 29.2519 34.974 28.8958 34.6293 28.642C34.2846 28.3883 33.8168 28.2614 33.2259 28.2614C32.8243 28.2614 32.4853 28.3182 32.2088 28.4318C31.9323 28.5417 31.7202 28.6951 31.5724 28.892C31.4285 29.089 31.3565 29.3125 31.3565 29.5625C31.349 29.7708 31.3925 29.9527 31.4872 30.108C31.5857 30.2633 31.7202 30.3977 31.8906 30.5114C32.0611 30.6212 32.258 30.7178 32.4815 30.8011C32.705 30.8807 32.9437 30.9489 33.1974 31.0057L34.2429 31.2557C34.7505 31.3693 35.2164 31.5208 35.6406 31.7102C36.0649 31.8996 36.4323 32.1326 36.7429 32.4091C37.0535 32.6856 37.294 33.0114 37.4645 33.3864C37.6387 33.7614 37.7277 34.1913 37.7315 34.6761C37.7277 35.3883 37.5459 36.0057 37.1861 36.5284C36.83 37.0473 36.3149 37.4508 35.6406 37.7386C34.9702 38.0227 34.1615 38.1648 33.2145 38.1648C32.2751 38.1648 31.4569 38.0208 30.7599 37.733C30.0668 37.4451 29.5251 37.0189 29.1349 36.4545C28.7486 35.8864 28.5459 35.1837 28.527 34.3466H30.9077C30.9342 34.7367 31.0459 35.0625 31.2429 35.3239C31.4437 35.5814 31.7107 35.7765 32.044 35.9091C32.3812 36.0379 32.7618 36.1023 33.1861 36.1023C33.6027 36.1023 33.9645 36.0417 34.2713 35.9205C34.5819 35.7992 34.8224 35.6307 34.9929 35.4148C35.1634 35.1989 35.2486 34.9508 35.2486 34.6705C35.2486 34.4091 35.1709 34.1894 35.0156 34.0114C34.8641 33.8333 34.6406 33.6818 34.3452 33.5568C34.0535 33.4318 33.6955 33.3182 33.2713 33.2159L32.0043 32.8977C31.0232 32.6591 30.2486 32.286 29.6804 31.7784C29.1122 31.2708 28.83 30.5871 28.8338 29.7273C28.83 29.0227 29.0175 28.4072 29.3963 27.8807C29.7789 27.3542 30.3035 26.9432 30.9702 26.6477C31.6368 26.3523 32.3944 26.2045 33.2429 26.2045C34.1065 26.2045 34.8603 26.3523 35.5043 26.6477C36.152 26.9432 36.6558 27.3542 37.0156 27.8807C37.3755 28.4072 37.5611 29.017 37.5724 29.7102H35.2145ZM40.7557 38.1477C40.3807 38.1477 40.0587 38.0152 39.7898 37.75C39.5246 37.4811 39.392 37.1591 39.392 36.7841C39.392 36.4129 39.5246 36.0947 39.7898 35.8295C40.0587 35.5644 40.3807 35.4318 40.7557 35.4318C41.1193 35.4318 41.4375 35.5644 41.7102 35.8295C41.983 36.0947 42.1193 36.4129 42.1193 36.7841C42.1193 37.0341 42.0549 37.2633 41.9261 37.4716C41.8011 37.6761 41.6364 37.8409 41.4318 37.9659C41.2273 38.0871 41.0019 38.1477 40.7557 38.1477ZM20.7273 46.125C20.6477 45.8485 20.536 45.6042 20.392 45.392C20.2481 45.1761 20.072 44.9943 19.8636 44.8466C19.6591 44.6951 19.4242 44.5795 19.1591 44.5C18.8977 44.4205 18.608 44.3807 18.2898 44.3807C17.6951 44.3807 17.1723 44.5284 16.7216 44.8239C16.2746 45.1193 15.9261 45.5492 15.6761 46.1136C15.4261 46.6742 15.3011 47.3598 15.3011 48.1705C15.3011 48.9811 15.4242 49.6705 15.6705 50.2386C15.9167 50.8068 16.2652 51.2405 16.7159 51.5398C17.1667 51.8352 17.6989 51.983 18.3125 51.983C18.8693 51.983 19.3447 51.8845 19.7386 51.6875C20.1364 51.4867 20.4394 51.2045 20.6477 50.8409C20.8598 50.4773 20.9659 50.0473 20.9659 49.5511L21.4659 49.625H18.4659V47.7727H23.3352V49.2386C23.3352 50.2614 23.1193 51.1402 22.6875 51.875C22.2557 52.6061 21.661 53.1705 20.9034 53.5682C20.1458 53.9621 19.2784 54.1591 18.3011 54.1591C17.2102 54.1591 16.2519 53.9186 15.4261 53.4375C14.6004 52.9527 13.9564 52.2652 13.4943 51.375C13.036 50.4811 12.8068 49.4205 12.8068 48.1932C12.8068 47.25 12.9432 46.4091 13.2159 45.6705C13.4924 44.928 13.8788 44.2992 14.375 43.7841C14.8712 43.2689 15.4489 42.8769 16.108 42.608C16.767 42.339 17.4811 42.2045 18.25 42.2045C18.9091 42.2045 19.5227 42.3011 20.0909 42.4943C20.6591 42.6837 21.1629 42.9527 21.6023 43.3011C22.0455 43.6496 22.4072 44.0644 22.6875 44.5455C22.9678 45.0227 23.1477 45.5492 23.2273 46.125H20.7273ZM25.1832 54V42.3636H27.6435V47.1648H32.6378V42.3636H35.0923V54H32.6378V49.1932H27.6435V54H25.1832ZM44.8366 46.125C44.7571 45.8485 44.6454 45.6042 44.5014 45.392C44.3575 45.1761 44.1813 44.9943 43.973 44.8466C43.7685 44.6951 43.5336 44.5795 43.2685 44.5C43.0071 44.4205 42.7173 44.3807 42.3991 44.3807C41.8045 44.3807 41.2817 44.5284 40.831 44.8239C40.384 45.1193 40.0355 45.5492 39.7855 46.1136C39.5355 46.6742 39.4105 47.3598 39.4105 48.1705C39.4105 48.9811 39.5336 49.6705 39.7798 50.2386C40.026 50.8068 40.3745 51.2405 40.8253 51.5398C41.276 51.8352 41.8082 51.983 42.4219 51.983C42.9787 51.983 43.4541 51.8845 43.848 51.6875C44.2457 51.4867 44.5488 51.2045 44.7571 50.8409C44.9692 50.4773 45.0753 50.0473 45.0753 49.5511L45.5753 49.625H42.5753V47.7727H47.4446V49.2386C47.4446 50.2614 47.2287 51.1402 46.7969 51.875C46.3651 52.6061 45.7704 53.1705 45.0128 53.5682C44.2552 53.9621 43.3878 54.1591 42.4105 54.1591C41.3196 54.1591 40.3613 53.9186 39.5355 53.4375C38.7098 52.9527 38.0658 52.2652 37.6037 51.375C37.1454 50.4811 36.9162 49.4205 36.9162 48.1932C36.9162 47.25 37.0526 46.4091 37.3253 45.6705C37.6018 44.928 37.9882 44.2992 38.4844 43.7841C38.9806 43.2689 39.5582 42.8769 40.2173 42.608C40.8764 42.339 41.5904 42.2045 42.3594 42.2045C43.0185 42.2045 43.6321 42.3011 44.2003 42.4943C44.7685 42.6837 45.2723 42.9527 45.7116 43.3011C46.1548 43.6496 46.5166 44.0644 46.7969 44.5455C47.0772 45.0227 47.2571 45.5492 47.3366 46.125H44.8366ZM23.2784 62.4375H20.7898C20.7443 62.1155 20.6515 61.8295 20.5114 61.5795C20.3712 61.3258 20.1913 61.1098 19.9716 60.9318C19.7519 60.7538 19.4981 60.6174 19.2102 60.5227C18.9261 60.428 18.6174 60.3807 18.2841 60.3807C17.6818 60.3807 17.1572 60.5303 16.7102 60.8295C16.2633 61.125 15.9167 61.5568 15.6705 62.125C15.4242 62.6894 15.3011 63.375 15.3011 64.1818C15.3011 65.0114 15.4242 65.7083 15.6705 66.2727C15.9205 66.8371 16.2689 67.2633 16.7159 67.5511C17.1629 67.839 17.6799 67.983 18.267 67.983C18.5966 67.983 18.9015 67.9394 19.1818 67.8523C19.4659 67.7652 19.7178 67.6383 19.9375 67.4716C20.1572 67.3011 20.339 67.0947 20.483 66.8523C20.6307 66.6098 20.733 66.3333 20.7898 66.0227L23.2784 66.0341C23.214 66.5682 23.053 67.0833 22.7955 67.5795C22.5417 68.072 22.1989 68.5133 21.767 68.9034C21.339 69.2898 20.8277 69.5966 20.233 69.8239C19.642 70.0473 18.9735 70.1591 18.2273 70.1591C17.1894 70.1591 16.2614 69.9242 15.4432 69.4545C14.6288 68.9848 13.9848 68.3049 13.5114 67.4148C13.0417 66.5246 12.8068 65.447 12.8068 64.1818C12.8068 62.9129 13.0455 61.8333 13.5227 60.9432C14 60.053 14.6477 59.375 15.4659 58.9091C16.2841 58.4394 17.2045 58.2045 18.2273 58.2045C18.9015 58.2045 19.5265 58.2992 20.1023 58.4886C20.6818 58.678 21.1951 58.9545 21.642 59.3182C22.089 59.678 22.4527 60.1193 22.733 60.642C23.017 61.1648 23.1989 61.7633 23.2784 62.4375ZM25.0426 70V58.3636H32.8835V60.392H27.5028V63.1648H32.4801V65.1932H27.5028V67.9716H32.9062V70H25.0426ZM44.5724 58.3636V70H42.4474L37.3849 62.6761H37.2997V70H34.8395V58.3636H36.9986L42.0213 65.6818H42.1236V58.3636H44.5724ZM46.1619 60.392V58.3636H55.7188V60.392H52.1562V70H49.7244V60.392H46.1619ZM57.2926 70V58.3636H65.1335V60.392H59.7528V63.1648H64.7301V65.1932H59.7528V67.9716H65.1562V70H57.2926ZM67.0895 70V58.3636H71.6804C72.5592 58.3636 73.3092 58.5208 73.9304 58.8352C74.5554 59.1458 75.0308 59.5871 75.3565 60.1591C75.6861 60.7273 75.8509 61.3958 75.8509 62.1648C75.8509 62.9375 75.6842 63.6023 75.3509 64.1591C75.0175 64.7121 74.5346 65.1364 73.902 65.4318C73.2732 65.7273 72.5118 65.875 71.6179 65.875H68.544V63.8977H71.2202C71.6899 63.8977 72.08 63.8333 72.3906 63.7045C72.7012 63.5758 72.9323 63.3826 73.0838 63.125C73.2391 62.8674 73.3168 62.5473 73.3168 62.1648C73.3168 61.7784 73.2391 61.4527 73.0838 61.1875C72.9323 60.9223 72.6993 60.7216 72.3849 60.5852C72.0743 60.4451 71.6823 60.375 71.2088 60.375H69.5497V70H67.0895ZM73.3736 64.7045L76.2656 70H73.5497L70.7202 64.7045H73.3736Z" fill="#051C44"/>
<rect x="54" width="51" height="25" rx="1" fill="#051C44"/>
<path d="M63.233 18V7.81818H66.7926C67.5019 7.81818 68.0869 7.94081 68.5476 8.18608C69.0083 8.42803 69.3513 8.7545 69.5767 9.16548C69.8021 9.57315 69.9148 10.0256 69.9148 10.5227C69.9148 10.9602 69.8369 11.3215 69.6811 11.6065C69.5286 11.8916 69.3265 12.117 69.0746 12.2827C68.826 12.4484 68.5559 12.571 68.2642 12.6506V12.75C68.5758 12.7699 68.889 12.8793 69.2038 13.0781C69.5187 13.277 69.7822 13.562 69.9943 13.9332C70.2064 14.3045 70.3125 14.7585 70.3125 15.2955C70.3125 15.8059 70.1965 16.2649 69.9645 16.6726C69.7325 17.0803 69.3662 17.4034 68.8658 17.642C68.3653 17.8807 67.714 18 66.9119 18H63.233ZM64.4659 16.9062H66.9119C67.7173 16.9062 68.2891 16.7505 68.6271 16.4389C68.9685 16.1241 69.1392 15.7429 69.1392 15.2955C69.1392 14.9508 69.0514 14.6326 68.8757 14.3409C68.7 14.0459 68.4498 13.8106 68.125 13.6349C67.8002 13.456 67.4157 13.3665 66.9716 13.3665H64.4659V16.9062ZM64.4659 12.2926H66.7528C67.1241 12.2926 67.4588 12.2197 67.7571 12.0739C68.0587 11.928 68.2973 11.7225 68.473 11.4574C68.652 11.1922 68.7415 10.8807 68.7415 10.5227C68.7415 10.0753 68.5857 9.69579 68.2741 9.38423C67.9626 9.06937 67.4688 8.91193 66.7926 8.91193H64.4659V12.2926ZM72.3384 18V7.81818H78.4833V8.91193H73.5714V12.3523H78.1651V13.446H73.5714V16.9062H78.5629V18H72.3384ZM80.1488 8.91193V7.81818H87.7852V8.91193H84.5835V18H83.3505V8.91193H80.1488ZM88.9162 18H87.6236L91.3622 7.81818H92.6349L96.3736 18H95.081L92.0384 9.42898H91.9588L88.9162 18ZM89.3935 14.0227H94.6037V15.1165H89.3935V14.0227Z" fill="white"/>
</svg>
